<svg xmlns="http://www.w3.org/2000/svg" xmlns:xlink="http://www.w3.org/1999/xlink" width="1600" height="566.257" viewBox="0 0 1600 566.257"><defs><style>.a{fill:url(#a);}.b{fill:url(#b);}</style><linearGradient id="a" x1="1.063" y1="0.078" x2="-0.005" y2="0.989" gradientUnits="objectBoundingBox"><stop offset="0" stop-color="#6156f9"/><stop offset="1" stop-color="#1a129f"/></linearGradient><linearGradient id="b" x1="1.119" y1="0.577" x2="0.5" y2="0.577" xlink:href="#a"/></defs><g transform="translate(0 -4282.743)"><path class="a" d="M1666.819,2487.258H163v-363.1c25.252-25.523,52.181-52.518,79.365-77.335,14.077-12.854,27.109-24.119,39.839-34.437,14.081-11.412,27.372-21.334,40.635-30.333a433.5,433.5,0,0,1,41.946-25.267c7.2-3.77,14.472-7.281,21.628-10.433,7.336-3.234,14.788-6.2,22.15-8.806,7.529-2.67,15.179-5.045,22.737-7.059,7.737-2.062,15.606-3.809,23.388-5.192,7.969-1.414,16.079-2.491,24.106-3.2,8.192-.726,16.565-1.093,24.886-1.093,7.857,0,15.888.329,23.871.976,8.114.659,16.409,1.667,24.653,3a367.859,367.859,0,0,1,51.856,12.433,475.8,475.8,0,0,1,55.607,21.662,644.679,644.679,0,0,1,59.773,31.666c19.962,11.889,40.232,23.025,60.244,33.1,19.322,9.727,38.978,18.75,58.423,26.821,18.709,7.764,37.767,14.868,56.646,21.117,18.114,5.994,36.589,11.373,54.914,15.989,17.506,4.408,35.412,8.255,53.221,11.433,16.914,3.018,34.267,5.526,51.576,7.456,16.325,1.819,33.138,3.182,49.971,4.052,15.715.811,32,1.222,48.412,1.222,28.093,0,57.678-1.177,90.445-3.6,29.636-2.19,58.227-5.111,84.972-7.916l2.284-.24,2.768-.291,2.569-.27,1.232-.13,1.319-.138c51.017-5.371,99.2-10.445,144.683-10.445,17.373,0,33.186.723,48.343,2.211,8,.787,15.888,1.8,23.43,3.019,7.818,1.261,15.54,2.781,22.954,4.518,7.651,1.794,15.217,3.876,22.488,6.188,7.489,2.382,14.9,5.082,22.036,8.024,7.318,3.019,14.586,6.394,21.6,10.031,7.17,3.719,14.294,7.825,21.174,12.2,7.037,4.483,14.023,9.377,20.762,14.549,6.879,5.279,13.731,11.019,20.364,17.061,6.74,6.141,13.461,12.783,19.978,19.742,6.616,7.068,13.212,14.669,19.6,22.592,5.75,7.127,11.52,14.746,17.149,22.644V2390.3c-24.346,24.609-56.706,57.231-96.181,96.959h0Z" transform="translate(-163 2361.742)"/><path class="b" d="M2095,2385.337H495V2113.351c3.355.687,6.759,1.412,10.12,2.156,19.12,4.232,39.6,9.654,60.867,16.115,21.92,6.658,45.3,14.61,69.5,23.634,15.6,5.821,31.252,10.953,46.507,15.255,14.847,4.186,29.747,7.7,44.287,10.453,14.133,2.671,28.328,4.692,42.19,6.007,13.448,1.276,26.977,1.922,40.214,1.922,135.2,0,237.426-66.171,330.542-133.947,8.716-6.343,17.21-12.593,25.424-18.636l.014-.011c41.188-30.3,80.092-58.926,119.649-80.225,21.183-11.407,40.772-19.756,59.887-25.524a230.432,230.432,0,0,1,30.65-7.065,202.69,202.69,0,0,1,31.388-2.486c6.423,0,12.921.322,19.311.956,6.541.648,13.166,1.64,19.691,2.948,6.661,1.335,13.429,3.04,20.117,5.069,6.8,2.063,13.726,4.526,20.584,7.319,6.962,2.836,14.06,6.1,21.1,9.694,7.144,3.654,14.428,7.759,21.65,12.2a415.675,415.675,0,0,1,45.138,32.417c68.12,55.753,139.908,92.573,219.466,112.562,16.4,4.12,33.623,7.641,51.189,10.466,15.757,2.536,31.93,4.563,49.444,6.2,32.373,3.018,63.24,4.11,93.09,5.166h.016l.019,0h.054c34.83,1.234,67.729,2.4,98.32,6.525,3.274.442,6.5.915,9.576,1.4v251.409h0Z" transform="translate(-495 2463.664)"/></g></svg>